/* XPM */
static char *result[] = {
/* columns rows colors chars-per-pixel */
"64 64 20 1 ",
"  c #403224",
". c #473828",
"X c #4F3E2D",
"o c #4C3F30",
"O c #554635",
"+ c #584532",
"@ c #5D4734",
"# c #544739",
"$ c #574A3B",
"% c #684F3A",
"& c #5E4F40",
"* c #615242",
"= c #695847",
"- c #615449",
"; c #745841",
": c #755E4B",
"> c #6C5E51",
", c #78695A",
"< c #826954",
"1 c #86786B",
/* pixels */
"*********==&&&+;++++++++++++++++;;XXX+++++++;;++=========++;;+++",
"********$&&&=++;+++++++++++++++++;XXX+++++++++;+========++%X++++",
"******$$&===++;;+++++++++++++++++;XXX+++++++++;+=,===,,=++%XX+++",
"*****$&==+++++;++++++++++++++++++;X.XX++++++++;+X>,&,>>+++%XX+++",
"***$&==+++++++;++++++++++++++++=,;..XX++++++++;++>,&>>>+++;XX+++",
"**&X+++++++++;++++++++++++++++X>=@ .XX++++++++;++>,>>>>+++;XX++X",
"*$X++++++++++;+++++++++++++++XX,#@..XX++++++++;++X>>>&&X++%XXX+X",
"&+X+++++++XXX;+++++++++++XX&&>>&%+..XX++++++++;+++>,>XX++;..XXXX",
";+X++++++XXXX;+++++++XXXX+=,,&=&@X.XX.X++++++;++++X&#X+++;....XX",
"+;X++++++XX%;+;++++=&&===,,&&==%...X..+++++++;+++++XX++++;.X..XX",
"+;XXX+++XX%;++;++++,>,,,,,&==;;%.. .XX+++++++;++++X++++++;....Xo",
"++%XXXXXX%;+++;+++=>,,,,=&;;;++;. ...X+++++;;;;+XX++++++++;;;%%;",
"+++%XXXX%++++++;+>>,,==;%;XXXX+;. ...X+++;;+++;X++++++++;;++++++",
"++++;XX%;++++++;=,===;;%XXXXXX++@....X+;;+++++X;+++;;;;;..++++++",
"+++++;;;++++++++;=;;;+X;XXXXXXXX;..+;;+++++++X+;;;;&+++;X..+++++",
"+++++++;+++++++++;+++X++%XXXX.+++%%;+++++++XX++;==>X++++;X.+++++",
"+++++++;++++++++++++X+++%XXX.+++++XX++++++X++++;=,&X+++++;.X++++",
"X++++++;+++++++++++X++++%XXX++++++++++++++X++++;=&&++++++;.X++++",
"X++++X+;++++++++++X+++++%X.++++++++++++++X+++++;,&&+++++++%.++++",
"X++++XX;+++++++++X++++++%+.+++++++++++++X++++++;,&X+++++++;.X+++",
"X++++X.%++XXXXX+X.X+++++%.X++++++++++++X++++++;,,XX+++++++;.X+++",
"X++++X.%+.....X. XX+++++%.XX++++++++++X+++++++;,=X++++++++;XX+++",
"XX+++X.%+....... ..+++++@XXX+++=+++++X+++++++;=,,&++++++++;XX+++",
"+X+++..%+XX.XXX.. .X+++X;XXX+=,,,XXXX.+++++++;=,+&X+++++++;XX+++",
";XXXXX.;X.X.XX.XXX..XXX+;X=,,,1,,,,=.X++++++;==,=&X+++++++%.X+++",
";XXXX...;...X.;;;%..+.X;+,1,,==;;;;<.X++++++;==+=XX++++++%..X+++",
";XXXX...;X.X%;+++X%. .X;,,=;;%;++++X<X+++++;=====&X+++++%....+++",
"+%XX....X;%;X+++++;X.X.;;;%...X++++X;X++++;=====,>X++++;.....X++",
"X;X.....%;++X+++++;.;;;;......X+++X+;X++++<=======%%;;;.....X.++",
"X+;...%;++;+X+++++X;+++%......X+++X+;X+++;===<;;;;+++++%XX.XX.X+",
"XX+%%;+++++%++++++X++++;.....XX+++X+;XX++O;;;+++++++++++;X.XXX.+",
"XX+++++++++X;++++X++++++%....XX+++X+;+X+;+++++++++++++++;X......",
".X+++++++++X+;+++X+++++++%...XX++X+++;;;++++++++++++++++;XXXXXXX",
".XX++++++++++;=>#++++++++;...XX++X++++;++++++++++++++++++%XXXX;;",
".XXX+++++++++;=,-+++++++++%..X.+X+++++;++++++++++++++++++;;;;;++",
".XXX++++++++++;>,>++++++++;..X.+X+++++;++++++XX+++++++++;+++++++",
".XXX++++++++++;>,>&+++++++;XX.+X++++++;++++X>&&&++++++++;+++++++",
".XXX+++++++++;&,,,&=++++++;XX.+X+++++++;++X>,==>++++++++;+++++++",
".XXX+++++++++;&,,,>&=+++++;XX.X++++++++;+&>,==,>>++++++;++++++++",
"..XX+++++++++;>,,,,>&+++++;+.X.X+++++++;+&,,=,,=>+++++;+++++++++",
"...XX++++++++%,,,=,,>&X++++;.X.X+++++++;&>,=====>X++;;X+++++++++",
"....XX++++++;&,,,==,=,>&=++;..XX++++++;=>,======,&=;XXX+++++++++",
"@....X++++++;&,,,=====,>&=+;. X.X++++++;=,=======;;XX+++++++++++",
".%....X+++++;>,,,=====,,>>+;..X.X+++++;X;%;;;;;;;XXX++++++++++++",
"XX;%..X++++;&,,,=======,,,&%.X.X.++++;XXXXXXXX..;XXX++++++++++++",
"XX++;;;+++;=&,,,===========;.XX..++++;X.XXXXX..+;XX++++++++++++;",
"XX+++++;;+;=>,,=========;;;%XXX..+++;+..XXXX..++;XX+++++++++++;+",
"XX+++++++;=,>,,========;+++%XXXXX+++;XX.XX..X+++;XX++++++++++;++",
"XX+++++++;=&==========;+++X+%XXXXX;;XXX....X++++;XX+++++++++;+++",
"XX++++++++;%;======;;;++++X+;XXX;;XXXX.. ..+++++;XXXXX++++++;+++",
"XX+++++++++X+;<=;;;+++++++X++;%@XXXX.XX...++++++;XXXXXX++++;++++",
"XX+++++++++X+++;++++++++++X++;X.XXXXXX...X+++++++;XXXXXXXXX;++++",
"XX++++++++X+++;++++++++++X+++;X.X.XXX.X..+++++++++;XXXXXXXX;++++",
".X++++++++X++;+++++==++++X+++;X ..XX.XX++++++++++++;XXXXXX;++++;",
".X++++++++.X;++++&&&&XXXXX+++;..X.X.XX++++++++++++++%XXXX;++++;.",
".X+++++++X.;+XXX&>=,,=,=X#+=+;XX....X++++++++++++++X;XXX;++++;X.",
".X+++++++.+;&=+,,,,,,,,=,-&,+;+XX..X+++++++++++++++.;;%%;+X;;X..",
".XX+++++X.;&>=,,,,,,,=,,&,>>=+;XX..++++++++++++++X..%....%%....+",
".XX+++++X.;>,,,,=,,===,=&==>&+;XX..+++++XX+++++++X..%....X..XX++",
"..X+++++X.:>,,,=========&==,>X;XX..+++++.X.XX++++..X%......XX+++",
"..X++++XX%&,,,==========&===,>=;XX.+++++...XXXXX...;....XXXX++++",
"...X++XXX%=,,===========&====,>+;X.+++++...X.XX....;....XX++++++",
".........%=,,===========&=====>&;X.+++XX.....X..X.X;...XX+++++++",
".......XX%=============&=======>&;;;;;XX.......X..X%....XX++++++"
};
