/* XPM */
static char *result[] = {
/* columns rows colors chars-per-pixel */
"64 64 4 1 ",
"  c #823CA3",
". c #8E34AA",
"X c #D2AEDD",
"o c None",
/* pixels */
"oooooooooooooooooooooooooooooooooooooooooooooooooooooooooooooooo",
"oooooooooooooooooooooooooooooooooooooooooooooooooooooooooooooooo",
"oooooooooooooooooooooooooooooooooooooooooooooooooooooooooooooooo",
"oooooooooooooooooooooooooooooooooooooooooooooooooooooooooooooooo",
"oooooooooooooooooooooooooooooooooooooooooooooooooooooooooooooooo",
"oooooooooooooooooooooooooooooooooooooooooooooooooooooooooooooooo",
"oooooooooooooooooooooooooooooooooooooooooooooooooooooooooooooooo",
"oooooooooooooooooooooooooooooooooooooooooooooooooooooooooooooooo",
"oooooooooooooooooooooooooooooooooooooooooooooooooooooooooooooooo",
"oooooooooooooooooooooooooooooooooooooooooooooooooooooooooooooooo",
"oooooooooooooooooooooooooooooooooooooooooooooooooooooooooooooooo",
"oooooooooooooooooooooooooooooooooooooooooooooooooooooooooooooooo",
"oooooooooooooooooooooooooooooooooooooooooooooooooooooooooooooooo",
"oooooooooooooooooooooooooooooooooooooooooooooooooooooooooooooooo",
"oooooooooooooooooooooooooooooooooooooooooooooooooooooooooooooooo",
"oooooooooooooooooooooooooooooooooooooooo o    oooooooooooooooooo",
"ooooooooooooooooooooooooooooooooooo            ooooooooooooooooo",
"ooooooooooooooooooooooooooooooooo           oo  oooooooooooooooo",
"ooooooooooooooooooooooooooooooo           oooooooooooooooooooooo",
"oooooooooooooooooooooooooo....           ooooooooooooooooooooooo",
"oooooooooooooooooooooooooo....           ooooooooooooooooooooooo",
"ooooooooooooooooooo oooo...............  ooooooooooooooooooooooo",
"ooooooooooooooooooo ooo.................  ooooooo oooooooooooooo",
"oooooooooooooooooo  ooo..................  ooooo  oooooooooooooo",
"oooooooooooooooooo oo..................... ooooooooooooooooooooo",
"ooooooooooooooo  o oo.......X..............ooooooooooooooooooooo",
"oooooooooooooooo o  o.....XXX..............oooo oooooooooooooooo",
"ooooooooooooooooo o .....XXX...............oooo oooooooooooooooo",
"ooooooooooooooooooo ....XXX.................oo  oooooooooooooooo",
"ooooooooooooooooooo ...XXX..................o  ooooooooooooooooo",
"ooooooooooooooooooo .......................   oooooooooooooooooo",
"ooooooooooooooooooo ....................... oooooooooooooooooooo",
"ooooooooooooooooooo ....................... oooooooooooooooooooo",
"ooooooooooooooooooo ....................... oooooooooooooooooooo",
"ooooooooooooooooooo....................... ooooooooooooooooooooo",
"oooooooooooooooooooo.....................  oo  ooooooooooooooooo",
"oooooooooooooooooooo......................oooooooooooooooooooooo",
"ooooooooooooooooooooo.....................oooooooooooooooooooooo",
"ooooooooooooooooooooo.....................oooooooooooooooooooooo",
"ooooooooooooooooooooo....................ooooooooooooooooooooooo",
"ooooooooooooooooooooooo..................ooooooooooooooooooooooo",
"ooooooooooooooooooooooooo.............oooooooooooooooooooooooooo",
"oooooooooooooooooooooooooo..........oooooooooooooooooooooooooooo",
"oooooooooooooooooooooooooooooo....ooooo  ooooooooooooooooooooooo",
"oooooooooooooooooooooooooooooooooooooo  oooooooooooooooooooooooo",
"oooooooooooooooooooooooooooooooooooooooooooooooooooooooooooooooo",
"oooooooooooooooooooooooooooooooooooooooooooooooooooooooooooooooo",
"oooooooooooooooooooooooooooooooooooooooooooooooooooooooooooooooo",
"oooooooooooooooooooooooooooooooooooooooooooooooooooooooooooooooo",
"oooooooooooooooooooooooooooooooooooooooooooooooooooooooooooooooo",
"oooooooooooooooooooooooooooooooooooooooooooooooooooooooooooooooo",
"oooooooooooooooooooooooooooooooooooooooooooooooooooooooooooooooo",
"oooooooooooooooooooooooooooooooooooooooooooooooooooooooooooooooo",
"oooooooooooooooooooooooooooooooooooooooooooooooooooooooooooooooo",
"oooooooooooooooooooooooooooooooooooooooooooooooooooooooooooooooo",
"oooooooooooooooooooooooooooooooooooooooooooooooooooooooooooooooo",
"oooooooooooooooooooooooooooooooooooooooooooooooooooooooooooooooo",
"oooooooooooooooooooooooooooooooooooooooooooooooooooooooooooooooo",
"oooooooooooooooooooooooooooooooooooooooooooooooooooooooooooooooo",
"oooooooooooooooooooooooooooooooooooooooooooooooooooooooooooooooo",
"oooooooooooooooooooooooooooooooooooooooooooooooooooooooooooooooo",
"oooooooooooooooooooooooooooooooooooooooooooooooooooooooooooooooo",
"oooooooooooooooooooooooooooooooooooooooooooooooooooooooooooooooo",
"oooooooooooooooooooooooooooooooooooooooooooooooooooooooooooooooo"
};
