/* XPM */
static char *result[] = {
/* columns rows colors chars-per-pixel */
"64 64 9 1 ",
"  c gray26",
". c #494449",
"X c #494949",
"o c #EA80FC",
"O c #EA81FC",
"+ c #E9B1F2",
"@ c #E9B2F2",
"# c #E9B3F2",
"$ c None",
/* pixels */
"$$$$$$$$$$$$$$$$$$$$$$$$$$$$$$$$$$$$$$$$$$$$$$$$$$$$$$$$$$$$$$$$",
"$$$$$$$$$$$$$$$$$$$$$$$$$$$$$$$$$$$$$$$$$$$$$$$$$$$$$$$$$$$$$$$$",
"$$$$$$$$$$$$$$$$$$$$$$$$$$$$$$$$$$$$$$$$$$$$$$$$$$$$$$$$$$$$$$$$",
"$$$$$$$$$$$$$$$$$$$$$$$$$$$$$$$$$$$$$$$$$$$$$$$$$$$$$$$$$$$$$$$$",
"$$$$$$$$$$$$$$$$$$$$$$$$$$$$$$$$$$$$$$$$$$$$$$$$$$$$$$$$$$$$$$$$",
"$$$$$$$$$$$$$$$$$$$$$$$$$$$$$$$$$$$$$$$$$$$$$$$$$$$$$$$$$$$$$$$$",
"$$$$$$$$$$$$$$$$$$$$$$$$$$$$$$$$$$$$$$$$$$$$$$$$$$$$$$$$$$$$$$$$",
"$$$$$$$$$$$$$$$$$$$$$$$$$$$$$$$$$$$$$$$$$$$$$$$$$$$$$$$$$$$$$$$$",
"$$$$$$$$$$$$$$$$$$$$$$$$$$$XXXXXXXXXXX$$$$$$$$$$$$$$$$$$$$$$$$$$",
"$$$$$$$$$$$$$$$$$$$$$$$XXXXXXXXXXXXXXXX.X.$$$$$$$$$$$$$$$$$$$$$$",
"$$$$$$$$$$$$$$$$$$$$XXXXXXXXXXXXXXXX.XXX.XXXX$$$$$$$$$$$$$$$$$$$",
"$$$$$$$$$$$$$$$$$$XXXXXXXXXXXXXXXXXXXXXXXXXXXXX$$$$$$$$$$$$$$$$$",
"$$$$$$$$$$$$$$$$XXXXXXXXXXXXXXXXXXXXXXXXXXXXXXXXX$$$$$$$$$$$$$$$",
"$$$$$$$$$$$$$$$XXXXXXXXXXXXXXXXXXXXXXXXXXXXXXXXXXX$$$$$$$$$$$$$$",
"$$$$$$$$$$$$$...XXXXXXXXXXXXXXXXXXXXXXXXXXXXXXXXXXXX$$$$$$$$$$$$",
"$$$$$$$$$$$$....X.XXXXXXXXXXXXXXXXXXXXXXXXXXXXXXXXXXX$$$$$$$$$$$",
"$$$$$$$$$$$.....XXXXXXXXXXXXXXXXXXXXXXXXXXXXXXXXXXXXXX$$$$$$$$$$",
"$$$$$$$$$$.......XXXXXXXXXXXXXXXXXXXXXXXXXXXXXXXXXXXXXX$$$$$$$$$",
"$$$$$$$$$.......X.XXXXXXXXXXXXX.XXXXXXXXXXXXXXXXXXXXXXXX$$$$$$$$",
"$$$$$$$$..........X.XXXXXX...XXXXXX.XXXXXXXXXXXXXXXXXXXXX$$$$$$$",
"$$$$$$$$..........X.X..X...............XXXXXXXXXXXXXXXXXX$$$$$$$",
"$$$$$$$...................................XX.XXXXXXXXXXXXX$$$$$$",
"$$$$$$$......................................XXXXXXXXXXXXX$$$$$$",
"$$$$$$ .. .................  .................XXXXXXXXXXXXX$$$$$",
"$$$$$$ ...................    ................XXXXXXXXXXXXX$$$$$",
"$$$$$   ......++o........     .................XXXXXXXXXXXXX$$$$",
"$$$$$      .#@+oooo......    ..................XXXXXXXXXXXXX$$$$",
"$$$$$      +#@oooooo....      ...+oooo.........XXXXXXXXXXXXX$$$$",
"$$$$       @#+oooooo.....    ...+++oooo..........XXXXXXXXXXXX$$$",
"$$$$      ###++oooooo....    ..+++oooooo.........XXXXXXXXXXXX$$$",
"$$$$      #@@++oooooo...    ..++++ooooooo........XXXXXXXXXXXX$$$",
"$$$$      #O++ooooooo..     .++++++ooooooo.......XXXXXXXXXXXX$$$",
"$$$$      oOooooooooo..     .++++++ooooooo.......XXXXXXXXXXXX$$$",
"$$$$      oOooooooooo...    .oo+o++ooooooo........XXXXXXXXXXX$$$",
"$$$$      oOooooooooo..    . ooooo++oooooo........XXXXXXXXXXX$$$",
"$$$$      ooooooooooo..    ..ooooooooooooo........XXXXXXXXXXX$$$",
"$$$$       ooooooooo...    ...ooooooooooo ........XXXXXXXXXXX$$$",
"$$$$$     .ooooooooo...    ....ooooooooo.  .......XXXXXXXXXX$$$$",
"$$$$$     ..ooooooo....    .....ooooooo.    ....XXXXXXXXXXXX$$$$",
"$$$$$      ...ooo......    ......ooooo..      ...XXXXXXXXXXX$$$$",
"$$$$$$    .............     ...........        .XXXXXXXXXXX$$$$$",
"$$$$$$    ............      ............      ..XXXXXXXXXXX$$$$$",
"$$$$$$$    ............     ..........        ....XXXXXXXX$$$$$$",
"$$$$$$$     ..........       .........       XX....XXXXXXX$$$$$$",
"$$$$$$$$     ........         ..... .       XX XXXXX.XXXX$$$$$$$",
"$$$$$$$$     . .....             ..      XXXXXXXX.X..XX. $$$$$$$",
"$$$$$$$$$                               XXXXXXXXXXX ....$$$$$$$$",
"$$$$$$$$$$                             XXXXXXXXXXXXXX .$$$$$$$$$",
"$$$$$$$$$$$                          XX  XXXXXXXXXXX  $$$$$$$$$$",
"$$$$$$$$$$$$                          X XXXXXXXXXXX X$$$$$$$$$$$",
"$$$$$$$$$$$$$                       X XXXXXXXXXXXXX $$$$$$$$$$$$",
"$$$$$$$$$$$$$$$                     XXXXXXXXXXXXXX$$$$$$$$$$$$$$",
"$$$$$$$$$$$$$$$$                    XXXXXXXXXXXXX$$$$$$$$$$$$$$$",
"$$$$$$$$$$$$$$$$$$                    X XX XXXX$$$$$$$$$$$$$$$$$",
"$$$$$$$$$$$$$$$$$$$$                X  XXXXXX$$$$$$$$$$$$$$$$$$$",
"$$$$$$$$$$$$$$$$$$$$$$$             XXXXXX$$$$$$$$$$$$$$$$$$$$$$",
"$$$$$$$$$$$$$$$$$$$$$$$$$$$          X$$$$$$$$$$$$$$$$$$$$$$$$$$",
"$$$$$$$$$$$$$$$$$$$$$$$$$$$$$$$$$$$$$$$$$$$$$$$$$$$$$$$$$$$$$$$$",
"$$$$$$$$$$$$$$$$$$$$$$$$$$$$$$$$$$$$$$$$$$$$$$$$$$$$$$$$$$$$$$$$",
"$$$$$$$$$$$$$$$$$$$$$$$$$$$$$$$$$$$$$$$$$$$$$$$$$$$$$$$$$$$$$$$$",
"$$$$$$$$$$$$$$$$$$$$$$$$$$$$$$$$$$$$$$$$$$$$$$$$$$$$$$$$$$$$$$$$",
"$$$$$$$$$$$$$$$$$$$$$$$$$$$$$$$$$$$$$$$$$$$$$$$$$$$$$$$$$$$$$$$$",
"$$$$$$$$$$$$$$$$$$$$$$$$$$$$$$$$$$$$$$$$$$$$$$$$$$$$$$$$$$$$$$$$",
"$$$$$$$$$$$$$$$$$$$$$$$$$$$$$$$$$$$$$$$$$$$$$$$$$$$$$$$$$$$$$$$$"
};
