/* XPM */
static char *result[] = {
/* columns rows colors chars-per-pixel */
"64 64 10 1 ",
"  c gray26",
". c #494449",
"X c #494549",
"o c #494649",
"O c #494949",
"+ c #EA80FC",
"@ c #EB85FC",
"# c #E9B1F2",
"$ c #E9B3F2",
"% c None",
/* pixels */
"%%%%%%%%%%%%%%%%%%%%%%%%%%%%%%%%%%%%%%%%%%%%%%%%%%%%%%%%%%%%%%%%",
"%%%%%%%%%%%%%%%%%%%%%%%%%%%%%%%%%%%%%%%%%%%%%%%%%%%%%%%%%%%%%%%%",
"%%%%%%%%%%%%%%%%%%%%%%%%%%%%%%%%%%%%%%%%%%%%%%%%%%%%%%%%%%%%%%%%",
"%%%%%%%%%%%%%%%%%%%%%%%%%%%%%%%%%%%%%%%%%%%%%%%%%%%%%%%%%%%%%%%%",
"%%%%%%%%%%%%%%%%%%%%%%%%%%%%%%%%%%%%%%%%%%%%%%%%%%%%%%%%%%%%%%%%",
"%%%%%%%%%%%%%%%%%%%%%%%%%%%%%%%%%%%%%%%%%%%%%%%%%%%%%%%%%%%%%%%%",
"%%%%%%%%%%%%%%%%%%%%%%%%%%%%%%%%%%%%%%%%%%%%%%%%%%%%%%%%%%%%%%%%",
"%%%%%%%%%%%%%%%%%%%%%%%%%%%%%%%%%%%%%%%%%%%%%%%%%%%%%%%%%%%%%%%%",
"%%%%%%%%%%%%%%%%%%%%%%%%%%%%%%%%%%%%%%%%%%%%%%%%%%%%%%%%%%%%%%%%",
"%%%%%%%%%%%%%%%%%%%%%%%%%%%%%%%%%%%%%%%%%%%%%%%%%%%%%%%%%%%%%%%%",
"%%%%%%%%%%%%%%%%%%%%%%%%%%%%%%%%%%%%%%%%%%%%%%%%%%%%%%%%%%%%%%%%",
"%%%%%%%%%%%%%%%%%%%%%%%%%%%%%%%%%%%%%%%%%%%%%%%%%%%%%%%%%%%%%%%%",
"%%%%%%%%%%%%%%%%%%%%%%%%%%%%%%%%%%%%%%%%%%%%%%%%%%%%%%%%%%%%%%%%",
"%%%%%%%%%%%%%%%%%%%%%%%%%%%%%%%%%%%%%%%%%%%%%%%%%%%%%%%%%%%%%%%%",
"%%%%%%%%%%%%%%%%%%%%%%%%%%%%%%%%%%%%%%%%%%%%%%%%%%%%%%%%%%%%%%%%",
"%%%%%%%%%%%%%%%%%%%%%%%%%%%%%%%%%%%%%%%%%%%%%%%%%%%%%%%%%%%%%%%%",
"%%%%%%%%%%%%%%%%%%%%%%%%%%%%%%%%%%%%%%%%%%%%%%%%%%%%%%%%%%%%%%%%",
"%%%%%%%%%%%%%%%%%%%%%%%%%%%%%%%%%%%%%%%%%%%%%%%%%%%%%%%%%%%%%%%%",
"%%%%%%%%%%%%%%%%%%%%%%%%%%%%%%%%%%%%%%%%%%%%%%%%%%%%%%%%%%%%%%%%",
"%%%%%%%%%%%%%%%%%%%%%%%%%%%..OOOOOO.OO%%%%%%%%%%%%%%%%%%%%%%%%%%",
"%%%%%%%%%%%%%%%%%%%%%%%O...............OOO%%%%%%%%%%%%%%%%%%%%%%",
"%%%%%%%%%%%%%%%%%%%%......................OO.%%%%%%%%%%%%%%%%%%%",
"%%%%%%%%%%%%%%%%%%...........................OO%%%%%%%%%%%%%%%%%",
"%%%%%%%%%%%%%%%%...........  .................OOO%%%%%%%%%%%%%%%",
"%%%%%%%%%%%%%%%...........    ................OOOO%%%%%%%%%%%%%%",
"%%%%%%%%%%%%%............     .................OOOOO%%%%%%%%%%%%",
"%%%%%%%%%%%%oX...........    ..................OOOOOO%%%%%%%%%%%",
"%%%%%%%%%%%.oX..........      .................OOOOOOO%%%%%%%%%%",
"%%%%%%%%%% Xo............    ....................OOOOOO%%%%%%%%%",
"%%%%%%%%%  oo............    ....................OOOOOOO%%%%%%%%",
"%%%%%%%%   XX...........    .....................OOOOOOOO%%%%%%%",
"%%%%%%%%   X...........     ............ ........OOOOOOOO%%%%%%%",
"%%%%%%%    X...........     .....................OOOOOOOOO%%%%%%",
"%%%%%%%   .X............    ............ .........OOOOOOOO%%%%%%",
"%%%%%%     X...........    . ..........  .........OOOOOOOOO%%%%%",
"%%%%%%    .............    ............. .........OOOOOOOOO%%%%%",
"%%%%%      ...##+......    .............  ........OOOOOOOOOO%%%%",
"%%%%%     ..###++++....    ............ .  .......OOOOOOOOOO%%%%",
"%%%%%     .###++++++...    ......#++++..    ....OOOOOOOOOOOO%%%%",
"%%%%       ###++++++...    .....###++++.      ...OOOOOOOOOOO %%%",
"%%%%      #####++++++..     ...###++++++       .OOOOOOOOOOOOO%%%",
"%%%%      #####++++++.      ..####+++++++     ..OOOOOOOOOOOOO%%%",
"%%%%      $+##+++++++..     .######+++++++    ....OOOOOOOOOO %%%",
"%%%%      +++++++++++.       ######+++++++   OO....OOOOOOOOO %%%",
"%%%%      +++++++++++        ++#+##+++++++  OO OOOOO.OOOOO   %%%",
"%%%%      +++++++++++        +++++#$+++++@OOOOOOO.O..OO.     %%%",
"%%%%      +++++++++++        +++++++++++@@OOOOOOOOO ....     %%%",
"%%%%       +++++++++          +++++++++@@OOOOOOOOOOOO ..     %%%",
"%%%%%      +++++++++           ++++++@@+ OOOOOOOOOOO        %%%%",
"%%%%%       +++++++             ++++++@ OOOOOOOOOOO O       %%%%",
"%%%%%         +++                +++@+OOOOOOOOOOOOO  O      %%%%",
"%%%%%%                              OOOOOOOOOOOOOOOOOO     %%%%%",
"%%%%%%                              OOOOOOOOOOOOOO O       %%%%%",
"%%%%%%%                               O OO OOOOOOOOO      %%%%%%",
"%%%%%%%                             O  OOOOOOOOOOOO       %%%%%%",
"%%%%%%%%                            OOOOOOOOOOOOO        %%%%%%%",
"%%%%%%%%                             O OO O OOOO         %%%%%%%",
"%%%%%%%%%%%%%%%%%%%%%%%%%%%%%%%%%%%%%%%%%%%%%%%%%%%%%%%%%%%%%%%%",
"%%%%%%%%%%%%%%%%%%%%%%%%%%%%%%%%%%%%%%%%%%%%%%%%%%%%%%%%%%%%%%%%",
"%%%%%%%%%%%%%%%%%%%%%%%%%%%%%%%%%%%%%%%%%%%%%%%%%%%%%%%%%%%%%%%%",
"%%%%%%%%%%%%%%%%%%%%%%%%%%%%%%%%%%%%%%%%%%%%%%%%%%%%%%%%%%%%%%%%",
"%%%%%%%%%%%%%%%%%%%%%%%%%%%%%%%%%%%%%%%%%%%%%%%%%%%%%%%%%%%%%%%%",
"%%%%%%%%%%%%%%%%%%%%%%%%%%%%%%%%%%%%%%%%%%%%%%%%%%%%%%%%%%%%%%%%",
"%%%%%%%%%%%%%%%%%%%%%%%%%%%%%%%%%%%%%%%%%%%%%%%%%%%%%%%%%%%%%%%%"
};
