/* XPM */
static char *_3d40bc4983f4616c84ff992c3ce3010KX43XeNNdvwht59i[] = {
/* columns rows colors chars-per-pixel */
"64 64 12 1 ",
"  c None",
". c #3B6699",
"X c #396FBF",
"o c #3E7ACF",
"O c #9C27B0",
"+ c #B64CC9",
"@ c #B87DC4",
"# c #4C85D4",
"$ c #4D8DD6",
"% c #518BD6",
"& c #6597D4",
"* c #6094E5",
/* pixels */
"                                                                ",
"                                                                ",
"                                                                ",
"                                                                ",
"                                                                ",
"                                                                ",
"                                                                ",
"                                                                ",
"                                                                ",
"                                                                ",
"                                                                ",
"                                                                ",
"                                 ********                       ",
"                            *************                       ",
"                          ****************                      ",
"                        %%******************                    ",
"                       %%********************                   ",
"                      o%**********************                  ",
"                     oo%%*********************                  ",
"                    Xoo%%**********************                 ",
"                    Xoo%************************                ",
"                   XXoo%%**********OOO****OOO***                ",
"                   XXoo%***********OOO****OOO***                ",
"                   XXoo%%**********OOO****OOO****               ",
"                  .XXooo%%*********+++****+++****               ",
"                  .XXooo%**********@++****@++****               ",
"                  .XXXoo%**********@++****@++*****              ",
"                  .XXXoo%%*********+@+****+@+*****              ",
"                  .XXXoo%%%********+++****+++*****              ",
"                  .XXXooo%%********+++****+++*****              ",
"                   .XXXoo%%%*******&&&****$$$*****              ",
"                   .XXXXoo%%%*********************              ",
"                   .XXXXXooo%%%%*****************#              ",
"                   .XXXXXXXoooo%%***************#               ",
"                    .XXXXXXXXXooo%%************#                ",
"                    .XXXXXXXXXXooo%************#                ",
"                     ..XXXXXXXXXXoo%*******%%##                 ",
"                       ...XXXXXXXoo%%****%%##                   ",
"                          ....XXXXo%o%%%%oo                     ",
"                              ...XXoooooo                       ",
"                                                                ",
"                                                                ",
"                                                                ",
"                                                                ",
"                                                                ",
"                                                                ",
"                                                                ",
"                                                                ",
"                                                                ",
"                                                                ",
"                                                                ",
"                                                                ",
"                                                                ",
"                                                                ",
"                                                                ",
"                                                                ",
"                                                                ",
"                                                                ",
"                                                                ",
"                                                                ",
"                                                                ",
"                                                                ",
"                                                                ",
"                                                                "
};
