/* XPM */
static char *result[] = {
/* columns rows colors chars-per-pixel */
"64 64 11 1 ",
"  c #3B6699",
". c #396FBF",
"X c #4F76A3",
"o c #3E7ACF",
"O c #9C27B0",
"+ c #B64CC9",
"@ c #B87DC4",
"# c #4C85D4",
"$ c #518BD6",
"% c #6094E5",
"& c None",
/* pixels */
"&&&&&&&&&&&&&&&&&&&&&&&&&&&&&&&&&&&&&&&&&&&&&&&&&&&&&&&&&&&&&&&&",
"&&&&&&&&&&&&&&&&&&&&&&&&&&&&&&&&&&&&&&&&&&&&&&&&&&&&&&&&&&&&&&&&",
"&&&&&&&&&&&&&&&&&&&&&&&&&&&&&&&&&&&&&&&&&&&&&&&&&&&&&&&&&&&&&&&&",
"&&&&&&&&&&&&&&&&&&&&&&&&&&&&&&&&&&&&&&&&&&&&&&&&&&&&&&&&&&&&&&&&",
"&&&&&&&&&&&&&&&&&&&&&&&&&&&&&&&&&&&&&&&&&&&&&&&&&&&&&&&&&&&&&&&&",
"&&&&&&&&&&&&&&&&&&&&&&&&&&&&&&&&&&&&&&&&&&&&&&&&&&&&&&&&&&&&&&&&",
"&&&&&&&&&&&&&&&&&&&&&&&&&&&&&&&&&&&&&&&&&&&&&&&&&&&&&&&&&&&&&&&&",
"&&&&&&&&&&&&&&&&&&&&&&&&&&&&&&&&&&&&&&&&&&&&&&&&&&&&&&&&&&&&&&&&",
"&&&&&&&&&&&&&&&&&&&&&&&&&&&&&&&&&&&&&&&&&&&&&&&&&&&&&&&&&&&&&&&&",
"&&&&&&&&&&&&&&&&&&&&&&&&&&&&&&&&&&&&&&&&&&&&&&&&&&&&&&&&&&&&&&&&",
"&&&&&&&&&&&&&&&&&&&&&&&&&&&&&&&&&&&&&&&&&&&&&&&&&&&&&&&&&&&&&&&&",
"&&&&&&&&&&&&&&&&&&&&&&&&&&&&&&&&&&&&&&&&&&&&&&&&&&&&&&&&&&&&&&&&",
"&&&&&&&&&&&&&&&&&&&&&&&&&&&&&&&&&&&&&&&&&&&&&&&&&&&&&&&&&&&&&&&&",
"&&&&&&&&&&&&&&&&&&&&&&&&&&&&&&&&&&&&&&&&&&&&&&&&&&&&&&&&&&&&&&&&",
"&&&&&&&&&&&&&&&&&&&&&&&&&&&&&&&&&&&&&&&&&&&&&&&&&&&&&&&&&&&&&&&&",
"&&&&&&&&&&&&&&&&&&&&&&&&&&&&&&&&&&&&&&&&&&&&&&&&&&&&&&&&&&&&&&&&",
"&&&&&&&&&&&&&&&&&&&&&&&&&&&&$$$$$$$$$$$$$&&&&&&&&&&&&&&&&&&&&&&&",
"&&&&&&&&&&&&&&&&&&&&&&&&&&$$$$$$$$$$$$%%%%&&&&&&&&&&&&&&&&&&&&&&",
"&&&&&&&&&&&&&&&&&&&&%&&&oo$$$$$$$%%%%%%%%%%%&&&&&&&&&&&&&&&&&&&&",
"&&&&&&&&&&&&&&&&&&&&&&&oo$$$$$$%%%%%%%%%%%%%%&&&&&&&&&&&&&&&&&&&",
"&&&&&&&&&&&&&&&&&&&&&&oo$$$$$%%%%%%%%%%%%%%%%%&&&&%&&&&&&&&&&&&&",
"&&&&&&&&&&&&&&&&&&&&&ooo$$$$$%%%%%%%%%%%%%%%%%&&&&&&&&&&&&&&&&&&",
"&&&&&&&&&&&&&&&&&&&&.ooo$$$$%%%%%%%%%%%%%%%%%%%&&&&&&&&&&&&&&&&&",
"&&&&&&&&&&&&&&&&%&&&.oo$$$$$%%%%%%%%%%%%%%%%%%%%&&&&&&&&&&&&&&&&",
"&&&&&&&&&&&&&&&&&&&..oo$$$$%%%%%%%%%%%%%%%%%%%%%&&&&&&&&&&&&&&&&",
"&&&&&&&&&&&&&&&&&&&..oo$$$$%%%%%%%%%%%%%%%%%%%%%&&&&&&&&&&&&&&&&",
"&&&&&&&&&&&&&&&&&&&..oo$$$%%%%%%%%%%%%%%%%%%%%%%%&&%&&&&&&&&&&&&",
"&&&&&&&&&&&&&&&&&& ..ooo$$%%%%%%%%%OOO%%%%OOO%%%%&&&&&&&&&&&&&&&",
"&&&&&&&&&&&&&&&&&& ..ooo$$%%%%%%%%%OOO%%%%OOO%%%%&&&&&&&&&&&&&&&",
"&&&&&&&&&&&&&&&&&& ..ooo$$%%%%%%%%%@++%%%%@++%%%%%&&&&&&&&&&&&&&",
"&&&&&&&&&&&&&&&&&& ..ooo$$%%%%%%%%%@@+%%%%@@+%%%%%&&&&&&&&&&&&&&",
"&&&&&&&&&&&&&&&&&& ..ooo$$%%%%%%%%%++@%%%%++@%%%%%&&&&&&&&&&&&&&",
"&&&&&&&&&&&&&&&&&& ..oooo$$%%%%%%%%+++%%%%+++%%%%%&&&&&&&&&&&&&&",
"&&&&&&&&&&&&&&&&&&& ..ooo$$%%%%%%%%+++%%%%+++%%%%%&&&&&&&&&&&&&&",
"&&&&&&&&&&&&&&&&&&& ..oooo$$$%%%%%%+++%%%%+++%%%%%&&&&&&&&&&&&&&",
"&&&&&&&&&&&&&&&&&&& ..oooooo$%%%%%%%%%%%%%%%%%%%%#&&&&&&&&&&&&&&",
"&&&&&&&&&&&&&&&&&&& .......o$$$%%%%%%%%%%%%%%%%%#&&&&&&&&&&&&&&&",
"&&&&&&&&&&&&&&&&&&&&               X############&&&&&&&&&&&&&&&&",
"&&&&&&&&&&&&&&&&&&&&&&&&&&&&&&&&&&&&&&&&&&&&&&&&&&&&&&&&&&&&&&&&",
"&&&&&&&&&&&&&&&&&&&&&&&&&&&&&&&&&&&&&&&&&&&&&&&&&&&&&&&&&&&&&&&&",
"&&&&&&&&&&&&&&&&&&&&&&&&&&&&&&&&&&&&&&&&&&&&&&&&&&&&&&&&&&&&&&&&",
"&&&&&&&&&&&&&&&&&&&&&&&&&&&&&&&&&&&&&&&&&&&&&&&&&&&&&&&&&&&&&&&&",
"&&&&&&&&&&&&&&&&&&&&&&&&&&&&&&&&&&&&&&&&&&&&&&&&&&&&&&&&&&&&&&&&",
"&&&&&&&&&&&&&&&&&&&&&&&&&&&&&&&&&&&&&&&&&&&&&&&&&&&&&&&&&&&&&&&&",
"&&&&&&&&&&&&&&&&&&&&&&&&&&&&&&&&&&&&&&&&&&&&&&&&&&&&&&&&&&&&&&&&",
"&&&&&&&&&&&&&&&&&&&&&&&&&&&&&&&&&&&&&&&&&&&&&&&&&&&&&&&&&&&&&&&&",
"&&&&&&&&&&&&&&&&&&&&&&&&&&&&&&&&&&&&&&&&&&&&&&&&&&&&&&&&&&&&&&&&",
"&&&&&&&&&&&&&&&&&&&&&&&&&&&&&&&&&&&&&&&&&&&&&&&&&&&&&&&&&&&&&&&&",
"&&&&&&&&&&&&&&&&&&&&&&&&&&&&&&&&&&&&&&&&&&&&&&&&&&&&&&&&&&&&&&&&",
"&&&&&&&&&&&&&&&&&&&&&&&&&&&&&&&&&&&&&&&&&&&&&&&&&&&&&&&&&&&&&&&&",
"&&&&&&&&&&&&&&&&&&&&&&&&&&&&&&&&&&&&&&&&&&&&&&&&&&&&&&&&&&&&&&&&",
"&&&&&&&&&&&&&&&&&&&&&&&&&&&&&&&&&&&&&&&&&&&&&&&&&&&&&&&&&&&&&&&&",
"&&&&&&&&&&&&&&&&&&&&&&&&&&&&&&&&&&&&&&&&&&&&&&&&&&&&&&&&&&&&&&&&",
"&&&&&&&&&&&&&&&&&&&&&&&&&&&&&&&&&&&&&&&&&&&&&&&&&&&&&&&&&&&&&&&&",
"&&&&&&&&&&&&&&&&&&&&&&&&&&&&&&&&&&&&&&&&&&&&&&&&&&&&&&&&&&&&&&&&",
"&&&&&&&&&&&&&&&&&&&&&&&&&&&&&&&&&&&&&&&&&&&&&&&&&&&&&&&&&&&&&&&&",
"&&&&&&&&&&&&&&&&&&&&&&&&&&&&&&&&&&&&&&&&&&&&&&&&&&&&&&&&&&&&&&&&",
"&&&&&&&&&&&&&&&&&&&&&&&&&&&&&&&&&&&&&&&&&&&&&&&&&&&&&&&&&&&&&&&&",
"&&&&&&&&&&&&&&&&&&&&&&&&&&&&&&&&&&&&&&&&&&&&&&&&&&&&&&&&&&&&&&&&",
"&&&&&&&&&&&&&&&&&&&&&&&&&&&&&&&&&&&&&&&&&&&&&&&&&&&&&&&&&&&&&&&&",
"&&&&&&&&&&&&&&&&&&&&&&&&&&&&&&&&&&&&&&&&&&&&&&&&&&&&&&&&&&&&&&&&",
"&&&&&&&&&&&&&&&&&&&&&&&&&&&&&&&&&&&&&&&&&&&&&&&&&&&&&&&&&&&&&&&&",
"&&&&&&&&&&&&&&&&&&&&&&&&&&&&&&&&&&&&&&&&&&&&&&&&&&&&&&&&&&&&&&&&",
"&&&&&&&&&&&&&&&&&&&&&&&&&&&&&&&&&&&&&&&&&&&&&&&&&&&&&&&&&&&&&&&&"
};
