/* XPM */
static char *result[] = {
/* columns rows colors chars-per-pixel */
"64 64 12 1 ",
"  c #3B6699",
". c #396FBF",
"X c #4F76A3",
"o c #3E7ACF",
"O c #9C27B0",
"+ c #B64CC9",
"@ c #B87DC4",
"# c #2196F3",
"$ c #4C85D4",
"% c #518BD6",
"& c #6094E5",
"* c None",
/* pixels */
"****************************************************************",
"****************************************************************",
"****************************************************************",
"****************************************************************",
"****************************************************************",
"****************************************************************",
"****************************************************************",
"****************************************************************",
"****************************************************************",
"****************************************************************",
"****************************************************************",
"****************************************************************",
"****************************************************************",
"****************************************************************",
"****************************************************************",
"*******************#**********#*****#***************************",
"************************#***************************************",
"***************************#************************************",
"*************************###******************#*****************",
"*************************%********##****************************",
"**************##*********************&******#*******************",
"**************##*&****o*******&&&&&&**&*&***#*#*****************",
"*********************o%***%*&&&&&&&&&**&*&*#**#*********#*******",
"********************o%***%*&&&&***************##****************",
"*******************o#*****&&***&&&&&&*&&&******#****************",
"***********###***.*o**%**&**#&&&&&&&&*&&&***********************",
"***********#*&****oo*%#***&&&#&*******&&&***&*******************",
"***********#*****.o**#%**&&&&#**&******&&&**&*******************",
"**********#**#**..*o##***&&**#***&&&*&&*&&**&***#***************",
"*************#**..*#%****&&*&*#&&&&&*&&**&**&***#***************",
"*************#**..*oo*%&**&&&*#&OOO*&&#**O**&****##*************",
"*************#**..*o*%#&**&&&*##OOO*&&#*O**&*&******************",
"*************#**..**o%#***&&&*&&@+*&&&&*****&&&*#***************",
"*************#* *.o*o%#&***&&**&@*+&&&*@@***&&&#****************",
"*************#* *.o***#&&****#***+*****++**&&&&#****************",
"*************#* *.o*oo****&*#*****+&&*&+**&&&##*****************",
"**************** *.*oo%%&**##*&**********+&&&#&*****************",
"*******#******** .*o*oo%%%##&***++***##*++&&&&******************",
"**************** ..**oo#**&*&&&&***###&&&#&&&*$*****************",
"**************** ..***##o%%%*&&**&&&*&&&&#&&*$******************",
"***************** *  ***     ** X$**$$$$$#**$*******************",
"*****************************************#**********************",
"*****************************#**********************************",
"******************************##********************************",
"*************************#**************************************",
"***********************##***************************************",
"****************************************************************",
"****************************************************************",
"****************************************************************",
"****************************************************************",
"****************************************************************",
"****************************************************************",
"****************************************************************",
"****************************************************************",
"****************************************************************",
"****************************************************************",
"****************************************************************",
"****************************************************************",
"****************************************************************",
"****************************************************************",
"****************************************************************",
"****************************************************************",
"****************************************************************",
"****************************************************************"
};
