/* XPM */
static char *result[] = {
/* columns rows colors chars-per-pixel */
"64 64 16 1 ",
"  c #3B6699",
". c #396FBF",
"X c #466595",
"o c #486FB9",
"O c #3E7ACF",
"+ c #4E7AC9",
"@ c #9C27B0",
"# c #B64CC9",
"$ c #B87DC4",
"% c #5B85CE",
"& c #4C85D4",
"* c #518BD6",
"= c #608AD0",
"- c #6D94DF",
"; c #6094E5",
": c None",
/* pixels */
"::::::::::::::::::::::::::::::::::::::::::::::::::::::::::::::::",
"::::::::::::::::::::::::::::::::::::::::::::::::::::::::::::::::",
"::::::::::::::::::::::::::::::::::::::::::::::::::::::::::::::::",
"::::::::::::::::::::::::::::::::::::::::::::::::::::::::::::::::",
"::::::::::::::::::::::::::::::::::::::::::::::::::::::::::::::::",
"::::::::::::::::::::::::::::::::::::::::::::::::::::::::::::::::",
"::::::::::::::::::::::::::::::::::::::::::::::::::::::::::::::::",
"::::::::::::::::::::::::::::::::::::::::::::::::::::::::::::::::",
"::::::::::::::::::::::::::::::::::::::::::::::::::::::::::::::::",
"::::::::::::::::::::::::::::::::::::::::::::::::::::::::::::::::",
"::::::::::::::::::::::::::::::::::::::::::::::::::::::::::::::::",
"::::::::::::::::::::::::::::::::::::::::::::::::::::::::::::::::",
"::::::::::::::::::::::::::::::::::::::::::::::::::::::::::::::::",
"::::::::::::::::::::::::::::::::::::::::::::::::::::::::::::::::",
"::::::::::::::::::::::::::::**;;;;;;;;;;;:::::::::::::::::::::::",
"::::::::::::::::::::::::::****;;;;;;;;;;;;::::::::::::::::::::::",
"::::::::::::::::::::::::*****;;;;;;;;;;;;;;;::::::::::::::::::::",
":::::::::::::::::::::::*****;;;;;;;;;;;;;;;;;:::::::::::::::::::",
"::::::::::::::::::::::O****;;;;;;;;;;;;;;;;;;;::::::::::::::::::",
":::::::::::::::::::::OO***;;;;;;;;;;;;;;;;;;;;::::::::::::::::::",
"::::::::::::::::::::.OO***;;;;;;;;;;;;;;;;;;;;;:::::::::::::::::",
"::::::::::::::::::::.OO**;;;;;;;;;;;;;;;;;;;;;;;::::::::::::::::",
":::::::::::::::::::..OO**;;;;;;;;;;;;;;;;;;;;;;;::::::::::::::::",
":::::::::::::::::::..OO**;;;;;;;;;;;;;;;;;;;;;;;::::::::::::::::",
":::::::::::::::::::..OO**;;;;;;;;;;@@@;;;;@@@;;;;:::::::::::::::",
":::::::::::::::::: ..OOO**;;;;;;;;;@@@;;;;@@@;;;;:::::::::::::::",
":::::::::::::::::: ..OOO**;;;;;;;;;$##;;;;$##;;;;:::::::::::::::",
":::::::::::::::::: ...OO**;;;;;;;;;$##;;;;$##;;;;;::::::::::::::",
":::::::::::::::::: ...OO**;;;;;;;;;$$#;;;;$$#;;;;;::::::::::::::",
":::::::::::::::::: ...OO**;;;;;;;;;##$;;;;##$;;;;;::::::::::::::",
":::::::::::::::::: ...OOO**;;;;;;;;###;;;;###;;;;;::::::::::::::",
"::::::::::::::::::: ...OO**;;;;;;;;###;;;;###;;;;;::::::::::::::",
"::::::::::::::::::: ....OO***;;;;;;###;;;;###;;;;;::::::::::::::",
"::::::::::::::::::: .....OOO*;;;;;;;;;;;;;;;;;;;;&::::::::::::::",
"::::::::::::::::::: .......O***;;;;;;;;;;;;;;;;;&:::::::::::::::",
"::::::::::::::::::::Xoooooooooo----------------%::::::::::::::::",
":::::::::::::::::::::XXoooooooooo----------==%%:::::::::::::::::",
":::::::::::::::::::::::XXXooooooo++=------=%%:::::::::::::::::::",
"::::::::::::::::::::::::::XXXXXXXX+=+====++:::::::::::::::::::::",
"::::::::::::::::::::::::::::::::::::::::::::::::::::::::::::::::",
"::::::::::::::::::::::::::::::::::::::::::::::::::::::::::::::::",
"::::::::::::::::::::::::::::::::::::::::::::::::::::::::::::::::",
"::::::::::::::::::::::::::::::::::::::::::::::::::::::::::::::::",
"::::::::::::::::::::::::::::::::::::::::::::::::::::::::::::::::",
"::::::::::::::::::::::::::::::::::::::::::::::::::::::::::::::::",
"::::::::::::::::::::::::::::::::::::::::::::::::::::::::::::::::",
"::::::::::::::::::::::::::::::::::::::::::::::::::::::::::::::::",
"::::::::::::::::::::::::::::::::::::::::::::::::::::::::::::::::",
"::::::::::::::::::::::::::::::::::::::::::::::::::::::::::::::::",
"::::::::::::::::::::::::::::::::::::::::::::::::::::::::::::::::",
"::::::::::::::::::::::::::::::::::::::::::::::::::::::::::::::::",
"::::::::::::::::::::::::::::::::::::::::::::::::::::::::::::::::",
"::::::::::::::::::::::::::::::::::::::::::::::::::::::::::::::::",
"::::::::::::::::::::::::::::::::::::::::::::::::::::::::::::::::",
"::::::::::::::::::::::::::::::::::::::::::::::::::::::::::::::::",
"::::::::::::::::::::::::::::::::::::::::::::::::::::::::::::::::",
"::::::::::::::::::::::::::::::::::::::::::::::::::::::::::::::::",
"::::::::::::::::::::::::::::::::::::::::::::::::::::::::::::::::",
"::::::::::::::::::::::::::::::::::::::::::::::::::::::::::::::::",
"::::::::::::::::::::::::::::::::::::::::::::::::::::::::::::::::",
"::::::::::::::::::::::::::::::::::::::::::::::::::::::::::::::::",
"::::::::::::::::::::::::::::::::::::::::::::::::::::::::::::::::",
"::::::::::::::::::::::::::::::::::::::::::::::::::::::::::::::::",
"::::::::::::::::::::::::::::::::::::::::::::::::::::::::::::::::"
};
