/* XPM */
static char *result[] = {
/* columns rows colors chars-per-pixel */
"64 64 13 1 ",
"  c #3D302C",
". c #4D362F",
"X c #5E3A31",
"o c #6B4237",
"O c #6E463C",
"+ c #704136",
"@ c #7A4F42",
"# c #785146",
"$ c #804E41",
"% c #855749",
"& c #8C5B4F",
"* c #8F5B50",
"= c #9E6559",
/* pixels */
"                                                                ",
"                                                                ",
"                                                                ",
"                                                                ",
"                                                                ",
"                                                                ",
"......     . .   . ..   .      . . . .    .....  .  ............",
"=..............................................................=",
"==============***.$$$$$$$$$$$$$$$$$...&&&&..&&&&&&&.==========.=",
"=============***.$$$$$$$$$$$$$$$$++.&&&&&&&&&&&&&&.==========.==",
"===========***..$$$$$$$$$$$$$$$$++.&&&&&&&&&&&&&&.==========.===",
"==========***.$$$$$$$$$$$$$$$$$++.&&&&&&&&&&&&&&.========**.*===",
"=========***.+++$$$$$$$$$$$$$$++.&&&&&&&&&&&&&&.=======****.**==",
"***=====***.%..++$$$$$$$$$$$$++.&&&&&&&&&&&&&&.****==****....**=",
"****==****.%%%%.+++$$$$$$$++++.&&&&&&&&&&&&&..%...*****...%%%.**",
"..*******.%%%%%%..+++$$++++++.%.....&&&&....%%%%%%.....%%%%%%%..",
"%%.****..%%%%%%%%%..++++++...%%%%%%%.&..%%%%%%%%%%%#.%%%%%%%%%%%",
"%%%....%%%%%%%%%%%%#......%%%%%%%%%%%.%%%%%%%%%%%%#.%%%%%%%%%%%%",
"%%%%%%%%%%%%%%%%%%#.%%%%%%%%%%%%%%%##.%%%%%%%%%%##.%%%%%%%%%%%%%",
"%%%%%%%%%%%%%%%%%#.%%%%%%%%%%%%%%%#..%%%%%%%%%%#..%%%%%%%%%%%%%%",
"%%%%%%%%%%%%%%%%#.%%%%%%%%%%%%%###.%%%%%%%%%###.#%%%%%%%%%%%%%%%",
"%%%%%%%%%%%%%%##.%%%%%%%%%%####....###%%%%##...$.#######%%%%%%%%",
"%%%%%%%%%%%%##..####%%#####....$$$$...####..$$$$$.......########",
"%%%%%%%%####..$$....##.....$$$$$$$$$$$....$$$$$$$$$$$$$$........",
"########....$$$$$+++..$$$$$$$$$$$$$$$++++.$$$$$$$$$$+...$$$$$$$$",
"........$$$$$$$$++..$$$$$$$$$$$$$$$++....$$$$$$$$$$+.$$$$$$$$$$$",
"$$$$$$$$$$$$$$$++.$$$$$$$$$$$$$$$$+..$$$$$$$$$$$$$+.$$$$$$$$$$$$",
"$$$$$$$$$$$$$$++.$$$$$$$$$$$$$$$++.$$$$$$$$$$$$$$+.$$$$$$$$$$$$$",
"$$$$$$$$$$$$$++.$$$$$$$$$$$$$$$$+.+$$$$$$$$$$$$$+.+$$$$$$$$$$$$+",
"$$$$$$$$$$$$$+.$$$$$$$$$$$$$$$$+.+$$$$$$$$$$$$$++.+$$$$$$$$$$++.",
"$$$$$$$$$$$+++.$$$$$$$$$$$$$$+++.+$$$$$$$$$$$++++.+++++$$$$++..@",
"$$$$$$$$$++++.+++$$$$$$$$$$$+++..+++++$$$$$$+++..@....+++++..@@@",
"+++++++++++..@..++++$$$$$$+++..$$.....+++++++..@@@@@@O.....@@@@@",
"...........@@@@@...++++++++..$$$$$$$++.......@@@@@@OO.@@@@@@@@@@",
"@@@@@@@@@@@@@@@@OOO........$$$$$$$$+..@@@@@@@@@@@@O..@@@@@@@@@@@",
"@@@@@@@@@@@@@@OO...$$$$$$$$$$$$$$++.@@@@@@@@@@@@@O.@@@@@@@@@@@@@",
"@@@@@@@@@@@@@O..$$$$$$$$$$$$$$$$+..@@@@@@@@@@@@@O.@@@@@@@@@@@@@@",
"@@@@@@@@@@@@O.$$$$$$$$$$$$$$$$$+.@@@@@@@@@@@@@@O.@@@@@@@@@@@@@@@",
"@@@@@@@@@@@O.$$$$$$$$$$$$$$$$$+.OO@@@@@@@@@@@OO.O@@@@@@@@@OOOOOO",
"@@@@@@@@@OO.$$$$$$$$$$$$$$$+++.@.OOOO@@@@@@OO..@.OOOOOOOOOOOO...",
"@@@@@@@OO..++$$$$$$$$$+++++...@@@...OOOOOOO..@@@@............@@@",
"OOOOOOO..%%..++$++++++.....@@@@@@@@@.......@@@@@@@@@@@@@@@.@@@@@",
".......%%%%%%..+......@@@@@@@@@@@@@@@O.@@@@@@@@@@@@@@@@@@@.@@@@@",
"%%%%%%%%%%%%%%O.@@@@@@@@@@@@@@@@@@@@O.@@@@@@@@@@@@@@@@@@@.@@@@@@",
"%%%%%%%%%%%%%O.@@@@@@@@@@@@@@@@@@@@O.@@@@@@@@@@@@@@@@@@@@.@@@@@@",
"%%%%%%%%%%%%O.@@@@@@@@@@@@@@@@@@@OO.@@@@@@@@@@@@@@@@@OOOO.@@@OOO",
"%%%%%%%%%%%O.@@@@@@@@@@@@@@@@@@@O..OO@@@@@@@@@@@@OOOO....OOOO...",
"%%%%%%%%%%O.O@@@@@@@@@@@@@@@OOOO.@@..OOO@@@@@OO@O....@@@@....@@@",
"%%%%%%%%OO.@.OOOO@@@OOOOOOOO....@@@@@...OOOOO..O.@@@@@@@@@@@@@@@",
"%%%%%OOO..@@@....OOO........@@@@@@@@@@@@.....@O.@@@@@@@@@@@@@@@@",
"OOOOO...@@@@@@@@@...@@@@@@@@@@@@@@@@@@@@@@@@OO.@@@@@@@@@@@@@@@@@",
".....@@@@@@@@@@@@@@@.@@@@@@@@@@@@@@@@@@@@OOO..@@@@@@@@@@@@@@@@@@",
"@@@@@@@@@@@@@@@@@@@.@@@@@@@@@@@@@@@@@@@@O....OO@@@@@@@@@@@@@@@@@",
"@@@@@@@@@@@@@@@@OOO.@@@@@@@@@@@@@@@@@@OO..ooo..O@@@@@@@@@@@@@@OO",
"@@@@@@@@@@@@@@OO...O@@@@@@@@@@@@@@@@@O..oooooo..OOOOOOOOOOOOOO..",
"@@@@@@@@@@@@@O..oo.OOO@@@@@@@@@@@@@@O.oooooooooo..............oo",
"@@@@@@@@@@@@O.ooooo...OOOOOO@@@@@@@O.ooooooooooo.ooooooooo.ooooo",
"@@@@@@@@@@@O.ooooooooo......OOOOOOO.oooooooooooo.ooooooooo.ooooo",
"@@@@@@@@@@O.oooooooooooooooo.......oooooooooooo.oooooooooo.ooooo",
"@@@@@OOOOO.Xooooooooooooooooo.ooooooooooooooooX.Xooooooooo.ooooo",
"OOOOO......Xooooooooooooooooo.ooooooooooooooXXXX.XooooooooX.oooo",
".....ooooX.XoooooooooooooooooX.oooooooooooXXXXXX.XXXXXoooooX.XoX",
"ooooooooX.XXooooooooooooooooooX.XXXXXXXXXXXXXXXX.XXXXXXXXXXX.XXX",
"XXXXXXXXX.XXXXXXXXXXXXXXXXXXXXXX.XXXXXXXXXXXXXXX.XXXXXXXXXXXX.XX"
};
